<!DOCTYPE svg PUBLIC "-//W3C//DTD SVG 1.1//EN" "http://www.w3.org/Graphics/SVG/1.1/DTD/svg11.dtd">
<!-- Uploaded to: SVG Repo, www.svgrepo.com, Transformed by: SVG Repo Mixer Tools -->
<svg fill="#ff0000" width="800px" height="800px" viewBox="0 0 512 512" xmlns="http://www.w3.org/2000/svg" stroke="#ff0000">
<g id="SVGRepo_bgCarrier" stroke-width="0"/>
<g id="SVGRepo_tracerCarrier" stroke-linecap="round" stroke-linejoin="round"/>
<g id="SVGRepo_iconCarrier">
<title>ionicons-v5-n</title>
<circle cx="256" cy="192" r="32"/>
<path d="M256,32C167.78,32,96,100.65,96,185c0,40.17,18.31,93.59,54.42,158.78,29,52.34,62.55,99.67,80,123.22a31.75,31.75,0,0,0,51.22,0c17.42-23.55,51-70.88,80-123.22C397.69,278.61,416,225.19,416,185,416,100.65,344.22,32,256,32Zm0,224a64,64,0,1,1,64-64A64.07,64.07,0,0,1,256,256Z"/>
</g>
</svg>